<svg xmlns="http://www.w3.org/2000/svg" viewBox="0 0 900 700" role="img" aria-labelledby="title desc">
  <title id="title">A relaxed dog sitting outdoors</title>
  <desc id="desc">An original restrained editorial silhouette of a calm dog sitting beneath a broad tree.</desc>
  <defs><linearGradient id="sky" x1="0" x2="1" y1="0" y2="1"><stop stop-color="#e8eee8"/><stop offset="1" stop-color="#f3ead2"/></linearGradient><linearGradient id="ground" x1="0" x2="0" y1="0" y2="1"><stop stop-color="#b7c6b3"/><stop offset="1" stop-color="#718473"/></linearGradient></defs>
  <rect width="900" height="700" rx="34" fill="url(#sky)"/>
  <circle cx="710" cy="125" r="72" fill="#f3ead2" opacity=".9"/>
  <path d="M0 430c180-80 300-40 445-86 153-50 278-22 455 50v306H0z" fill="url(#ground)"/>
  <path d="M90 500c80-146 108-268 90-382h65c-4 143 36 258 117 382z" fill="#536657"/>
  <path d="M24 172C130 66 313 70 401 190c-121-16-254 29-377 101z" fill="#718473" opacity=".86"/>
  <path d="M177 267c77-88 200-103 305-33-116-1-205 46-305 119z" fill="#718473" opacity=".76"/>
  <ellipse cx="555" cy="568" rx="180" ry="27" fill="#536657" opacity=".35"/>
  <path d="M466 352c-26-42-14-92 22-119l-11-73c-3-19 19-30 33-16l58 55c43-5 85 12 105 48 27 49 12 108-25 141l27 123c5 24-13 46-37 46H470c-24 0-41-21-36-44l21-105c-25-14-35-32-42-56-11-37 14-77 53-85z" fill="#944633" opacity=".94"/>
  <path d="M550 199c-40 8-69 43-69 83 0 34 13 55 37 71-40 30-63 82-61 141h158c-2-64-10-103-38-146 39-20 58-51 55-84-4-40-35-70-82-65z" fill="#b85c45"/>
  <path d="M474 315c-34 5-52 29-49 55 3 24 22 43 50 50" fill="none" stroke="#203238" stroke-linecap="round" stroke-width="7" opacity=".7"/>
  <path d="M430 484c-69 28-112 20-145-10" fill="none" stroke="#944633" stroke-linecap="round" stroke-width="19"/>
  <path d="M481 550v69M625 550v69" stroke="#944633" stroke-linecap="round" stroke-width="23"/>
  <circle cx="180" cy="560" r="13" fill="#f3ead2"/><circle cx="128" cy="605" r="9" fill="#f3ead2"/><circle cx="227" cy="613" r="8" fill="#f3ead2"/>
</svg>
